<svg id="레이어_1" data-name="레이어 1" xmlns="http://www.w3.org/2000/svg" viewBox="0 0 522 521"><defs><style>.cls-1{fill:#9edaef;}.cls-2{fill:#f9f9f9;}.cls-3{fill:#1e90ff;}</style></defs><title>대지 37</title><path class="cls-1" d="M1.12,319.35c.8-2.6,1.11-5.51,2.48-7.76,20.92-34.23,19.58-68.12.2-102.7-7.18-12.82-3.32-24.55,9.71-32.76,31.91-20.09,51-47.08,50.17-86.81-.35-16.76,11-26.88,28.5-26.45,37.21.92,63.42-16.78,82.14-47.35C184.37-.87,197.76-4,213.7,5.23c32.06,18.57,63.5,17.54,95.4-.37,14.77-8.3,28.18-6.44,37.4,9.23,18.91,32.15,46.32,49,84.19,48.84,21.26-.11,28.8,14.81,28.66,32.7-.26,34.35,14.95,58.7,43.8,75.59,19.63,11.49,22.63,27.34,11.76,46.21-16.94,29.42-16.27,58.25.74,87.4C526.24,323,521.78,338.2,504.09,349c-29.34,17.92-45.75,42.49-45.06,78.12.36,18.71-8.83,30.61-30,30.62-36.8,0-63.56,17.51-82.15,48.86-9,15.15-22.62,18.25-37.45,9.72-32.93-18.94-65.21-17.54-97.85.39-15.67,8.62-28.76,3.74-37.15-10.85-18.46-32.09-46.2-47.74-82.54-48.24-19.72-.27-29-11.05-28.74-28.76.46-36.34-15.84-61.81-45.89-80.64C7.49,342.08-2.64,334.11,1.12,319.35Z"/><path class="cls-2" d="M192,281.23c0-12.76.44-25.54-.1-38.28-.76-17.69,1.13-32.59,16.33-46.16,14.58-13,17.55-33.48,16.63-53.25s2.08-37.43,25.8-40.93c19.62-2.88,42.48,17.28,46.06,38.7,3.49,20.83-8.68,45.55,11.55,62,17.82,14.49,40.54,4.84,60.95,7.09,24.51,2.7,34.86,18,36.23,40.36,1.16,19.07.81,38.29.19,57.41-1.08,33.16-32.06,64.11-65.2,64.76-31.89.63-63.92,1.84-95.68-.29-41.61-2.78-58.14-12.1-53-53.14C193.32,306.92,192,294,192,281.23Z"/><path class="cls-3" d="M187.58,281.58c0,20.05-1,40.16.29,60.13,1.09,17.34-6.21,22.94-22.32,21.48a137.28,137.28,0,0,0-24.58,0c-19.37,1.75-25.62-7.32-25.18-25.82.86-36.43,1.18-72.93-.11-109.34-.75-21.35,6.66-30.83,28.29-28.25a64.14,64.14,0,0,0,16.38,0c21.33-3,29.9,5,27.61,27.19C186.1,245,187.58,263.36,187.58,281.58Z"/></svg>