<svg id="레이어_1" data-name="레이어 1" xmlns="http://www.w3.org/2000/svg" viewBox="0 0 226 268"><defs><style>.cls-1{fill:#010101;}.cls-2{fill:#fff;}</style></defs><title>대지 1 사본</title><path class="cls-1" d="M112.48,226.48h-99c-1.33,0-2.67,0-4,0-3.94.15-7.38-.89-9.16-4.7-1.84-4-.55-7.31,2.32-10.44,7.66-8.35,15.12-16.87,22.77-25.23a9,9,0,0,0,2.68-6.58c-.14-21.16-.08-42.32-.13-63.48C28,98.14,31.18,81,39.82,65.11c10-18.47,25.6-29.9,45.8-34.86,4.69-1.16,5.82-2.9,5.75-7.48C91.2,11.42,98,3.06,108.56.75a21.51,21.51,0,0,1,24,11.88,24.93,24.93,0,0,1,2.11,12.67c-.2,2.65.73,3.76,3.3,4.35,34.12,7.93,51.69,31,58.09,64A124.61,124.61,0,0,1,198,118.54c-.15,20.16,0,40.32-.13,60.48a10.07,10.07,0,0,0,3,7.45c7.55,8.21,14.87,16.64,22.41,24.87,2.88,3.14,4.14,6.5,2.31,10.44s-5.21,4.72-9.16,4.72Q164.46,226.44,112.48,226.48Z"/><path class="cls-2" d="M113,263.86c-12.38,0-23.76-9.86-25.16-21.66,3.16.07,6.61.09,10.81.09h7.19l7.17,0,7.16,0h7.19c4.21,0,7.67,0,10.83-.09-1.36,11.68-12.65,21.54-25,21.66Z"/><path d="M113,246.26l7.15,0h7.2c2,0,3.93,0,5.68,0a22.54,22.54,0,0,1-19.84,13.59H113c-8.61,0-16.88-5.93-20-13.59,1.74,0,3.6,0,5.64,0h7.21l7.16,0m-25.87-8.07c-2.65,0-3.63.62-3.34,3.82,1.28,14,14.52,25.85,29.2,25.85h.28c14.65-.15,27.73-12,29-25.88.28-3.21-.73-3.79-3.34-3.79h-.44c-3.7.07-7.4.09-11.1.09l-14.35,0-14.37,0c-3.7,0-7.39,0-11.08-.09Z"/><path class="cls-2" d="M216.45,221.5q-27.67,0-55.34,0H13.52l-2.57,0c-.54,0-1.07,0-1.61,0H8.83c-3.08,0-3.57-1.06-3.93-1.83-.46-1-1-2.22,1.47-4.95,4-4.33,7.94-8.77,11.79-13.06,3.58-4,7.29-8.15,11-12.17a13.92,13.92,0,0,0,4-10C33,166,33,152.27,33,139q0-11.48,0-23c0-18.69,3.62-34.57,11.21-48.54,9.13-16.79,23.46-27.69,42.6-32.4,6.81-1.67,9.67-5.38,9.56-12.4-.13-8.83,4.83-15.22,13.26-17.07a16.34,16.34,0,0,1,3.48-.38A16.61,16.61,0,0,1,128,14.77a19.78,19.78,0,0,1,1.64,10.16c-.37,5,2.17,8.43,7.15,9.59,30.08,7,47.85,26.66,54.32,60.12A117.79,117.79,0,0,1,193,118.51c-.07,10-.06,20.13-.06,29.94,0,10,0,20.36-.07,30.53a14.91,14.91,0,0,0,4.36,10.87c3.82,4.16,7.66,8.46,11.37,12.62s7.31,8.19,11,12.25c2.49,2.72,1.89,4,1.46,5s-.85,1.82-4.6,1.82Z"/><path d="M113.11,10.25a11.59,11.59,0,0,1,10.41,6.66,14.78,14.78,0,0,1,1.17,7.65c-.56,7.55,3.56,13.1,11,14.83,14.58,3.39,25.76,9.74,34.16,19.41,7.91,9.09,13.42,21.47,16.39,36.79A114,114,0,0,1,188,118.47c-.07,10-.06,20.17-.06,30,0,10,0,20.34-.07,30.48a19.84,19.84,0,0,0,5.68,14.3c3.8,4.13,7.62,8.41,11.32,12.56,3.14,3.51,6.37,7.13,9.62,10.69l-53.14,0H11.55c3.49-3.82,7-7.7,10.34-11.47,3.57-4,7.27-8.13,10.93-12.13a18.87,18.87,0,0,0,5.31-13.4C38,166,38,152.26,38,139q0-11.48,0-23C38,98.2,41.42,83.1,48.6,69.89,57.15,54.16,70,44.37,88,40c9.14-2.25,13.51-7.92,13.37-17.34-.09-6.37,3.31-10.78,9.33-12.11a11.62,11.62,0,0,1,2.41-.26m0-10a20.79,20.79,0,0,0-4.55.5C98,3.06,91.2,11.42,91.37,22.77c.07,4.58-1.06,6.32-5.75,7.48-20.2,5-35.76,16.39-45.8,34.86C31.18,81,28,98.14,28,116.05c.05,21.16,0,42.32.13,63.48a9,9,0,0,1-2.68,6.58C17.8,194.47,10.34,203,2.68,211.34c-2.87,3.13-4.16,6.48-2.32,10.44,1.68,3.59,4.82,4.72,8.47,4.72l.69,0c.48,0,1,0,1.43,0l2.57,0h147.8q27.56,0,55.12,0h0c3.93,0,7.37-.91,9.13-4.72s.57-7.3-2.31-10.44c-7.54-8.23-14.86-16.66-22.41-24.87a10.07,10.07,0,0,1-3-7.45c.16-20.16,0-40.32.13-60.48a124.61,124.61,0,0,0-1.91-24.85c-6.4-33.09-24-56.11-58.09-64-2.57-.59-3.5-1.7-3.3-4.35a24.93,24.93,0,0,0-2.11-12.67A21.58,21.58,0,0,0,113.11.25Z"/></svg>