<svg id="레이어_1" data-name="레이어 1" xmlns="http://www.w3.org/2000/svg" viewBox="0 0 226 268"><defs><style>.cls-1{fill:#444b4f;}</style></defs><title>대지 1</title><path class="cls-1" d="M112.48,226.48h-99c-1.33,0-2.67,0-4,0-3.94.15-7.38-.89-9.16-4.7-1.84-4-.55-7.31,2.32-10.44,7.66-8.35,15.12-16.87,22.77-25.23a9,9,0,0,0,2.68-6.58c-.14-21.16-.08-42.32-.13-63.48C28,98.14,31.18,81,39.82,65.11c10-18.47,25.6-29.9,45.8-34.86,4.69-1.16,5.82-2.9,5.75-7.48C91.2,11.42,98,3.06,108.56.75a21.51,21.51,0,0,1,24,11.88,24.93,24.93,0,0,1,2.11,12.67c-.2,2.65.73,3.76,3.3,4.35,34.12,7.93,51.69,31,58.09,64A124.61,124.61,0,0,1,198,118.54c-.15,20.16,0,40.32-.13,60.48a10.07,10.07,0,0,0,3,7.45c7.55,8.21,14.87,16.64,22.41,24.87,2.88,3.14,4.14,6.5,2.31,10.44s-5.21,4.72-9.16,4.72Q164.46,226.44,112.48,226.48Z"/><path class="cls-1" d="M113,238.26c8.48,0,17,.11,25.45-.06,2.94-.07,4.08.4,3.78,3.78-1.23,13.88-14.31,25.73-29,25.88S85.05,256.1,83.77,242c-.3-3.36.79-3.88,3.76-3.81C96,238.37,104.49,238.26,113,238.26Z"/></svg>