<svg id="레이어_1" data-name="레이어 1" xmlns="http://www.w3.org/2000/svg" viewBox="0 0 278 267"><defs><style>.cls-1{fill:#fefefe;}</style></defs><title>대지 7</title><path d="M145.8.4a145.7,145.7,0,0,1,97.55,39.82c16.93,15.9,28.32,35.16,32.77,58.18,4.41,22.85,1,44.61-9.68,65.17-12.71,24.44-32.34,41.8-56.7,54-24.54,12.29-50.69,17.26-78,16.16a158.33,158.33,0,0,1-24.15-3,3,3,0,0,0-3,.92C84.82,249.85,61.6,261,35.15,265.4A128.81,128.81,0,0,1,20.62,267c-3.87.21-6.81-1.35-8.51-4.88s-.73-6.56,1.76-9.38c11.35-12.8,18.88-27.86,25.53-43.42,1.11-2.6,3.1-5.41,2.78-7.88s-3.74-3.72-5.75-5.58c-17.7-16.38-30-35.91-34.61-59.83C-3,110.94,1.42,87.37,14.39,65.53,30,39.27,53.11,22,81.2,11,99.69,3.76,119,.47,145.8.4ZM61.65,137.85a33.21,33.21,0,0,0,.53,3.6C65.12,153,79,156.76,87.64,148.28q14.48-14.31,28.75-28.82c1.57-1.6,2.25-1.35,3.66.09q14,14.4,28.27,28.61c6.13,6.15,15.59,6.5,21.68.53q21.08-20.66,41.86-41.58a15.06,15.06,0,0,0-21.09-21.5q-14.61,14.36-28.94,29c-1.38,1.39-2.06,1.53-3.51.06Q144,100.15,129.56,85.83c-6.24-6.2-15.73-6.37-21.88-.27q-20.87,20.67-41.56,41.53A15,15,0,0,0,61.65,137.85Z"/><path class="cls-1" d="M61.65,137.85a15,15,0,0,1,4.47-10.76q20.76-20.81,41.56-41.53c6.15-6.1,15.64-5.93,21.88.27q14.44,14.34,28.76,28.82c1.45,1.47,2.13,1.33,3.51-.06q14.37-14.58,28.94-29a15.06,15.06,0,0,1,21.09,21.5Q191,128,170,148.69c-6.09,6-15.55,5.62-21.68-.53q-14.2-14.24-28.27-28.61c-1.41-1.44-2.09-1.69-3.66-.09Q102.14,134,87.64,148.28c-8.6,8.48-22.52,4.71-25.46-6.83A33.21,33.21,0,0,1,61.65,137.85Z"/></svg>