<svg id="레이어_1" data-name="레이어 1" xmlns="http://www.w3.org/2000/svg" viewBox="0 0 278 267"><defs><style>.cls-1{fill:#fefefe;}.cls-2{fill:#010101;}.cls-3{fill:#fff;}</style></defs><title>대지 7 사본</title><path class="cls-1" d="M20,261a2.2,2.2,0,0,1-2.42-1.49c-.33-.68-.58-1.21.83-2.81,12.43-14,20.4-30.64,26.56-45,.22-.51.52-1.11.85-1.75,1.26-2.49,2.83-5.6,2.37-9.23-.55-4.3-3.89-6.59-6.1-8.1a15.3,15.3,0,0,1-1.53-1.13c-17.93-16.6-28.66-35.1-32.79-56.56-4.48-23.22-.5-45.53,11.83-66.29,14.05-23.67,34.94-40.68,63.84-52,18-7.07,36.71-10.12,62.36-10.19a140.19,140.19,0,0,1,93.49,38.19c16.52,15.52,26.94,34,31,55,4.09,21.16,1,41.77-9.12,61.26-11.51,22.14-29.19,38.95-54.06,51.41a150.25,150.25,0,0,1-68,15.68h0c-2.33,0-4.72,0-7.09-.14a152.31,152.31,0,0,1-23.24-2.93,10.11,10.11,0,0,0-1.94-.19,9,9,0,0,0-6.26,2.6,127.37,127.37,0,0,1-66.36,32.26A126.54,126.54,0,0,1,20.3,261Z"/><path d="M145.7,12.4A134.23,134.23,0,0,1,235.13,49c15.58,14.64,25.41,32,29.21,51.72A86.14,86.14,0,0,1,255.79,158c-10.91,21-27.73,36.95-51.43,48.82a144.37,144.37,0,0,1-65.32,15c-2.25,0-4.56,0-6.85-.14a146.85,146.85,0,0,1-22.33-2.82,16.41,16.41,0,0,0-3.09-.3,14.89,14.89,0,0,0-10.32,4.18,121.4,121.4,0,0,1-63.29,30.76c-1.64.28-3.33.52-5,.72,10-13.1,16.88-27.54,22.33-40.28.14-.33.41-.88.68-1.4,1.46-2.88,3.66-7.24,3-12.71-.89-7-6.14-10.55-8.66-12.28-.31-.22-.74-.51-.91-.65-16.92-15.68-27-33.09-30.91-53.23C9.42,112,13.15,91.12,24.71,71.65,38.06,49.17,58,33,85.58,22.18c17.3-6.78,35.29-9.7,60.12-9.78m.1-12C119,.47,99.69,3.76,81.2,11,53.11,22,30,39.27,14.39,65.53,1.42,87.37-3,110.94,1.82,136c4.62,23.92,16.91,43.45,34.61,59.83,2,1.86,5.45,3.19,5.75,5.58s-1.67,5.28-2.78,7.88c-6.65,15.56-14.18,30.62-25.53,43.42-2.49,2.82-3.44,5.87-1.76,9.38A8.12,8.12,0,0,0,20,267l.67,0a128.81,128.81,0,0,0,14.53-1.58c26.45-4.44,49.67-15.55,69.43-33.77a3.06,3.06,0,0,1,2.19-1,3.84,3.84,0,0,1,.79.08,158.33,158.33,0,0,0,24.15,3c2.45.1,4.9.15,7.33.15,24.69,0,48.36-5.12,70.7-16.31,24.36-12.21,44-29.57,56.7-54,10.69-20.56,14.09-42.32,9.68-65.17-4.45-23-15.84-42.28-32.77-58.18A145.7,145.7,0,0,0,145.8.4Z"/><path class="cls-2" d="M159.6,153.48a14.41,14.41,0,0,1-10.22-4.38c-11-11-20-20.12-28.26-28.6a4.24,4.24,0,0,0-2.93-1.64,4.17,4.17,0,0,0-2.87,1.55c-9,9.16-18.39,18.58-28.74,28.8a14.08,14.08,0,0,1-9.89,4.18,13.38,13.38,0,0,1-13.06-10.31,16.58,16.58,0,0,1-.35-2.25c0-.36-.08-.71-.13-1.07a13.43,13.43,0,0,1,4-9.61l6.17-6.2c11.58-11.6,23.54-23.6,35.38-35.33a13.66,13.66,0,0,1,9.63-4A14.34,14.34,0,0,1,128.5,88.9c11.65,11.55,20.52,20.44,28.75,28.8a4.06,4.06,0,0,0,2.8,1.49,4.11,4.11,0,0,0,2.84-1.55c7.86-8,18.25-18.46,28.93-29a13.75,13.75,0,0,1,9.67-4.07,13.09,13.09,0,0,1,12.82,10.22,13.37,13.37,0,0,1-3.51,13.22c-16.66,16.71-29.56,29.53-41.84,41.56A13.34,13.34,0,0,1,159.6,153.48Z"/><path class="cls-3" d="M118.37,86.08A12.89,12.89,0,0,1,127.45,90c11.62,11.53,20.49,20.41,28.73,28.79a5.46,5.46,0,0,0,3.87,1.94,5.6,5.6,0,0,0,3.91-2c7.86-8,18.24-18.45,28.91-28.94a12.28,12.28,0,0,1,8.62-3.64,11.6,11.6,0,0,1,11.36,9.08,11.79,11.79,0,0,1-3.11,11.8c-16.67,16.72-29.57,29.53-41.84,41.55a11.77,11.77,0,0,1-8.3,3.44,12.91,12.91,0,0,1-9.16-3.94c-11-11-20-20.12-28.25-28.58a5.65,5.65,0,0,0-4-2.1,5.57,5.57,0,0,0-3.94,2c-9,9.16-18.38,18.58-28.72,28.78a12.57,12.57,0,0,1-8.84,3.75,11.92,11.92,0,0,1-11.61-9.18,15.71,15.71,0,0,1-.31-2c0-.33-.07-.66-.11-1a11.9,11.9,0,0,1,3.59-8.47l6.09-6.12c11.6-11.62,23.6-23.65,35.46-35.4a12.12,12.12,0,0,1,8.57-3.61m0-3a15.13,15.13,0,0,0-10.69,4.48q-20.87,20.67-41.56,41.53a15,15,0,0,0-4.47,10.76,33.21,33.21,0,0,0,.53,3.6,14.88,14.88,0,0,0,14.51,11.44,15.5,15.5,0,0,0,11-4.61q14.48-14.31,28.75-28.82c.74-.76,1.28-1.1,1.8-1.1s1.11.43,1.86,1.19q14,14.4,28.27,28.61A15.93,15.93,0,0,0,159.6,155a14.77,14.77,0,0,0,10.4-4.29q21.08-20.66,41.86-41.58a14.79,14.79,0,0,0,3.91-14.63,14.61,14.61,0,0,0-14.28-11.37,15.17,15.17,0,0,0-10.72,4.5q-14.61,14.36-28.94,29c-.72.72-1.24,1.1-1.78,1.1s-1-.33-1.73-1Q144,102.15,129.56,87.83a15.91,15.91,0,0,0-11.19-4.75Z"/></svg>